<?xml version="1.0" encoding="utf-8"?>
<!-- Generator: Adobe Illustrator 17.0.0, SVG Export Plug-In . SVG Version: 6.00 Build 0)  -->
<!DOCTYPE svg PUBLIC "-//W3C//DTD SVG 1.1//EN" "http://www.w3.org/Graphics/SVG/1.1/DTD/svg11.dtd">
<svg version="1.1" id="top-arrow" xmlns="http://www.w3.org/2000/svg" xmlns:xlink="http://www.w3.org/1999/xlink" x="0px" y="0px"
	 width="600px" height="600px" viewBox="0 0 600 600" enable-background="new 0 0 600 600" xml:space="preserve">
<g>
	<path fill="#046799" d="M388.469,277.018l-78.314-122.989c-4.48-6.978-15.902-6.978-20.308,0l-78.333,122.989
		c-1.726,2.718-2.277,5.913-1.579,9.071c0.716,3.158,2.589,5.839,5.27,7.528c2.699,1.726,5.913,2.314,9.071,1.616
		c3.14-0.698,5.839-2.571,7.565-5.288l56.115-88.138v250.165h24.073V201.807l56.133,88.101c1.708,2.718,4.389,4.627,7.528,5.325
		c3.213,0.698,6.408,0.11,9.108-1.616c3.47-2.24,5.545-6.023,5.545-10.136C390.342,281.131,389.717,278.964,388.469,277.018z"/>
	<path fill="#046799" d="M300,600.228c-165.424,0-300-134.594-300-300s134.576-300,300-300s300,134.594,300,300
		S465.424,600.228,300,600.228z M300,27.404c-150.441,0-272.824,122.402-272.824,272.824S149.559,573.052,300,573.052
		S572.824,450.65,572.824,300.228S450.441,27.404,300,27.404z"/>
</g>
</svg>
